# xmcd
#
# Track frame offsets: 
#        150
#        11302
#        38902
#        64947
#        93492
#        116096
#        139076
#        162533
#        183446
#        208467
#        232074
#
# Disc length: 3380 seconds
#
# Revision: 1
# Processed by: cddbd v1.5.2PL0 Copyright (c) Steve Scherf et al.
# Submitted via: ExactAudioCopyFreeDBPlugin 1.0
#
DISCID=a10d320b
DTITLE=Zenit - Natur und Industrie
DYEAR=2007
DGENRE=Instrumental
TTITLE0=Der Anfang vom Ende
TTITLE1=Tatendrang contra Wörterzwang
TTITLE2=Organsprache
TTITLE3=Staubige Wege
TTITLE4=Einstreuungen an der Doppelspule
TTITLE5=Die Leiche im Teltowkanal
TTITLE6=Fremdköper
TTITLE7=Anekdoten über Getränkemarken und Schädelbasisbrüche
TTITLE8=Ein Leben für Nichts
TTITLE9=Alltägliches
TTITLE10=Seifenoper - Melodram
EXTD=
EXTT0=
EXTT1=
EXTT2=
EXTT3=
EXTT4=
EXTT5=
EXTT6=
EXTT7=
EXTT8=
EXTT9=
EXTT10=
PLAYORDER=
